<!DOCTYPE svg PUBLIC "-//W3C//DTD SVG 1.1//EN" "http://www.w3.org/Graphics/SVG/1.1/DTD/svg11.dtd">
<!-- Uploaded to: SVG Repo, www.svgrepo.com, Transformed by: SVG Repo Mixer Tools -->
<svg fill="#7CFC00" height="800px" width="800px" version="1.1" id="Layer_1" xmlns="http://www.w3.org/2000/svg" xmlns:xlink="http://www.w3.org/1999/xlink" viewBox="0 0 512 512" xml:space="preserve" stroke="#7CFC00">
<g id="SVGRepo_bgCarrier" stroke-width="0"/>
<g id="SVGRepo_tracerCarrier" stroke-linecap="round" stroke-linejoin="round"/>
<g id="SVGRepo_iconCarrier"> <g> <g> <path d="M432.57,191.598c-16.259,0-399.145,0-415.326,0C7.72,191.598,0,199.318,0,208.842c0,7.334,0,207.464,0,215.535v0.394 c0,9.524,7.72,17.244,17.244,17.244H432.57c9.524,0,17.244-7.72,17.244-17.244v-0.394c0-8.208,0-208.368,0-215.535 C449.814,199.318,442.093,191.598,432.57,191.598z M34.488,226.086h31.001c-5.162,14.401-16.6,25.838-31.001,31.001V226.086z M34.488,407.133v-31.001c14.401,5.163,25.839,16.6,31.001,31.001H34.488z M415.326,407.133h-31.002 c5.163-14.401,16.6-25.839,31.002-31.001V407.133z M415.326,340.401c-33.588,6.888-60.07,33.484-66.803,67.127H101.278 c-6.734-33.641-33.204-60.238-66.791-67.124v-47.585c33.458-6.861,59.872-33.275,66.732-66.732h247.374 c6.86,33.458,33.275,59.872,66.733,66.732V340.401z M415.326,257.087c-14.401-5.163-25.839-16.6-31.002-31.001h31.002V257.087z"/> </g> </g> <g> <g> <path d="M224.602,233.787c-38.843,0-70.444,37.242-70.444,83.02c0,45.778,31.601,83.02,70.444,83.02s70.445-37.242,70.445-83.02 C295.046,271.029,263.445,233.787,224.602,233.787z M224.602,365.339c-19.491,0-35.956-22.226-35.956-48.532 c0-26.306,16.466-48.532,35.956-48.532s35.957,22.225,35.957,48.532C260.56,343.114,244.092,365.339,224.602,365.339z"/> </g> </g> <g> <g> <path d="M460.519,130.181H51.481c-9.524,0-17.244,7.72-17.244,17.244s7.72,17.244,17.244,17.244h409.037 c9.524,0,17.244-7.72,17.244-17.244S470.042,130.181,460.519,130.181z"/> </g> </g> <g> <g> <path d="M494.756,69.985H85.719c-9.524,0-17.244,7.72-17.244,17.244c0,9.524,7.72,17.244,17.244,17.244h409.037 c9.524,0,17.244-7.72,17.244-17.244C512,77.704,504.279,69.985,494.756,69.985z"/> </g> </g> </g>
</svg>